{
  "version": "0.5.1",
  "modules": [
    {
      "plugin": "Core",
      "model": "AudioInterface",
      "pos": [
        1545.0,
        0.0
      ],
      "params": [],
      "data": {
        "driver": 2,
        "device": 0,
        "sampleRate": 96000.0,
        "blockSize": 4096
      }
    },
    {
      "plugin": "AudibleInstruments",
      "model": "Braids",
      "pos": [
        780.0,
        380.0
      ],
      "params": [
        0.61350107192993164,
        0.12199996411800385,
        0.25000005960464478,
        0.067999981343746185,
        0.4179999828338623,
        0.046000048518180847,
        0.57849991321563721
      ],
      "data": {
        "settings": [
          28,
          0,
          0,
          0,
          0,
          0,
          0,
          0,
          0,
          0,
          0,
          0,
          0,
          0,
          0,
          0,
          0,
          0,
          0,
          0
        ],
        "lowCpu": false
      }
    },
    {
      "plugin": "Fundamental",
      "model": "SEQ3",
      "pos": [
        0.0,
        0.0
      ],
      "params": [
        2.624000072479248,
        0.0,
        0.0,
        8.0,
        1.2449996471405029,
        0.0,
        0.0,
        0.0,
        1.0950005054473877,
        0.0,
        0.0,
        0.0,
        1.0950002670288086,
        0.0,
        0.0,
        0.0,
        0.854999840259552,
        0.0,
        0.0,
        0.0,
        0.0,
        0.0,
        0.0,
        0.0,
        0.0,
        0.0,
        0.0,
        0.0,
        0.0,
        0.0,
        0.0,
        0.0,
        0.0,
        0.0,
        0.0,
        0.0
      ],
      "data": {
        "running": false,
        "gates": [
          1,
          1,
          1,
          1,
          1,
          1,
          1,
          1
        ],
        "gateMode": 0
      }
    },
    {
      "plugin": "Fundamental",
      "model": "SEQ3",
      "pos": [
        330.0,
        0.0
      ],
      "params": [
        2.0,
        0.0,
        0.0,
        7.0,
        0.0,
        0.0,
        0.0,
        0.0,
        0.0,
        0.0,
        0.0,
        0.0,
        0.0,
        0.0,
        0.0,
        0.0,
        0.0,
        0.0,
        0.0,
        0.0,
        0.0,
        0.0,
        0.0,
        0.0,
        0.0,
        0.0,
        0.0,
        0.0,
        0.0,
        0.0,
        0.0,
        0.0,
        0.0,
        0.0,
        0.0,
        0.0
      ],
      "data": {
        "running": false,
        "gates": [
          1,
          0,
          1,
          0,
          1,
          0,
          1,
          1
        ],
        "gateMode": 0
      }
    },
    {
      "plugin": "Fundamental",
      "model": "VCMixer",
      "pos": [
        660.0,
        0.0
      ],
      "params": [
        1.0,
        0.66250085830688477,
        0.77550017833709717,
        0.0
      ]
    },
    {
      "plugin": "Befaco",
      "model": "Mixer",
      "pos": [
        1470.0,
        0.0
      ],
      "params": [
        0.41349983215332031,
        1.0,
        0.5955004096031189,
        0.66250008344650269
      ]
    },
    {
      "plugin": "Fundamental",
      "model": "SEQ3",
      "pos": [
        0.0,
        380.0
      ],
      "params": [
        2.0,
        0.0,
        0.0,
        8.0,
        0.0,
        0.0,
        0.0,
        0.0,
        0.0,
        0.0,
        0.0,
        0.0,
        0.0,
        0.0,
        0.0,
        0.0,
        0.0,
        0.0,
        0.0,
        0.0,
        0.0,
        0.0,
        0.0,
        0.0,
        0.0,
        0.0,
        0.0,
        0.0,
        0.0,
        0.0,
        0.0,
        0.0,
        0.0,
        0.0,
        0.0,
        0.0
      ],
      "data": {
        "running": false,
        "gates": [
          0,
          1,
          1,
          1,
          0,
          1,
          0,
          1
        ],
        "gateMode": 0
      }
    },
    {
      "plugin": "AudibleInstruments",
      "model": "Braids",
      "pos": [
        330.0,
        380.0
      ],
      "params": [
        0.9165034294128418,
        -1.0,
        -2.0,
        -1.0,
        0.0,
        -0.98499995470046997,
        1.0
      ],
      "data": {
        "settings": [
          42,
          0,
          0,
          0,
          0,
          0,
          0,
          0,
          0,
          0,
          0,
          0,
          0,
          0,
          0,
          0,
          0,
          0,
          0,
          0
        ],
        "lowCpu": false
      }
    },
    {
      "plugin": "Fundamental",
      "model": "VCA",
      "pos": [
        690.0,
        760.0
      ],
      "params": [
        0.5,
        0.53600007295608521
      ]
    },
    {
      "plugin": "Grayscale",
      "model": "Algorhythm",
      "pos": [
        1020.0,
        380.0
      ],
      "params": [
        0.0,
        0.0,
        0.0,
        0.0,
        0.0,
        0.0,
        0.0,
        0.0,
        0.0,
        0.0,
        0.0,
        0.0
      ],
      "data": {
        "looping": true,
        "seq": false,
        "gate": true,
        "pattern": [
          1,
          1,
          1,
          1,
          1,
          1,
          1,
          1
        ]
      }
    },
    {
      "plugin": "Fundamental",
      "model": "VCMixer",
      "pos": [
        960.0,
        0.0
      ],
      "params": [
        1.0,
        0.90999984741210938,
        0.71799981594085693,
        1.0
      ]
    },
    {
      "plugin": "AudibleInstruments",
      "model": "Braids",
      "pos": [
        780.0,
        760.0
      ],
      "params": [
        0.74100089073181152,
        -1.0,
        -2.0,
        -1.0,
        1.0,
        0.014999845996499062,
        0.3829994797706604
      ],
      "data": {
        "settings": [
          34,
          0,
          0,
          0,
          0,
          0,
          0,
          0,
          0,
          0,
          0,
          0,
          0,
          0,
          0,
          0,
          0,
          0,
          0,
          0
        ],
        "lowCpu": false
      }
    },
    {
      "plugin": "AudibleInstruments",
      "model": "Braids",
      "pos": [
        1260.0,
        760.0
      ],
      "params": [
        0.78750163316726685,
        -1.0,
        -2.0,
        -1.0,
        1.0,
        0.014999845996499062,
        0.40399971604347229
      ],
      "data": {
        "settings": [
          36,
          0,
          0,
          0,
          0,
          0,
          0,
          0,
          0,
          0,
          0,
          0,
          0,
          0,
          0,
          0,
          0,
          0,
          0,
          0
        ],
        "lowCpu": false
      }
    },
    {
      "plugin": "AudibleInstruments",
      "model": "Braids",
      "pos": [
        1020.0,
        760.0
      ],
      "params": [
        0.74100089073181152,
        -1.0,
        -2.0,
        -1.0,
        0.50350016355514526,
        0.014999845996499062,
        0.40399971604347229
      ],
      "data": {
        "settings": [
          34,
          0,
          0,
          0,
          0,
          0,
          0,
          0,
          0,
          0,
          0,
          0,
          0,
          0,
          0,
          0,
          0,
          0,
          0,
          0
        ],
        "lowCpu": false
      }
    },
    {
      "plugin": "AudibleInstruments",
      "model": "Braids",
      "pos": [
        330.0,
        760.0
      ],
      "params": [
        0.67500126361846924,
        0.0,
        0.0,
        0.0,
        0.5,
        0.0,
        0.5
      ],
      "data": {
        "settings": [
          31,
          0,
          0,
          0,
          0,
          0,
          0,
          0,
          0,
          0,
          0,
          0,
          0,
          0,
          0,
          0,
          0,
          0,
          0,
          0
        ],
        "lowCpu": false
      }
    },
    {
      "plugin": "Fundamental",
      "model": "SEQ3",
      "pos": [
        0.0,
        760.0
      ],
      "params": [
        2.0,
        0.0,
        0.0,
        8.0,
        1.4850003719329834,
        0.0,
        0.0,
        0.0,
        2.820000171661377,
        0.0,
        0.0,
        0.0,
        1.4100004434585571,
        0.0,
        0.0,
        0.0,
        0.0,
        0.0,
        0.0,
        0.0,
        0.0,
        0.0,
        0.0,
        0.0,
        0.0,
        0.0,
        0.0,
        0.0,
        0.0,
        0.0,
        0.0,
        0.0,
        0.0,
        0.0,
        0.0,
        0.0
      ],
      "data": {
        "running": false,
        "gates": [
          1,
          1,
          1,
          1,
          1,
          1,
          1,
          1
        ],
        "gateMode": 0
      }
    },
    {
      "plugin": "Fundamental",
      "model": "VCMixer",
      "pos": [
        810.0,
        0.0
      ],
      "params": [
        1.0,
        0.85000014305114746,
        0.73600006103515625,
        1.0
      ]
    },
    {
      "plugin": "Fundamental",
      "model": "ADSR",
      "pos": [
        570.0,
        760.0
      ],
      "params": [
        0.0,
        0.5,
        0.5,
        0.66100090742111206
      ]
    },
    {
      "plugin": "Fundamental",
      "model": "VCA",
      "pos": [
        690.0,
        380.0
      ],
      "params": [
        0.5,
        0.5
      ]
    },
    {
      "plugin": "Fundamental",
      "model": "ADSR",
      "pos": [
        570.0,
        380.0
      ],
      "params": [
        0.0,
        0.5,
        0.5,
        0.67900049686431885
      ]
    },
    {
      "plugin": "Fundamental",
      "model": "VCO",
      "pos": [
        330.0,
        1140.0
      ],
      "params": [
        1.0,
        1.0,
        -21.006004333496094,
        -0.77700084447860718,
        0.0,
        1.0,
        0.0
      ]
    },
    {
      "plugin": "Fundamental",
      "model": "SEQ3",
      "pos": [
        0.0,
        1140.0
      ],
      "params": [
        5.708000659942627,
        0.0,
        0.0,
        7.0,
        0.0,
        0.0,
        0.0,
        0.0,
        0.0,
        0.0,
        0.0,
        0.0,
        0.0,
        0.0,
        0.0,
        0.0,
        0.0,
        0.0,
        0.0,
        0.0,
        0.0,
        0.0,
        0.0,
        0.0,
        0.0,
        0.0,
        0.0,
        0.0,
        0.0,
        0.0,
        0.0,
        0.0,
        0.0,
        0.0,
        0.0,
        0.0
      ],
      "data": {
        "running": true,
        "gates": [
          1,
          0,
          1,
          0,
          1,
          1,
          1,
          1
        ],
        "gateMode": 0
      }
    },
    {
      "plugin": "Fundamental",
      "model": "VCA",
      "pos": [
        600.0,
        1140.0
      ],
      "params": [
        0.66799986362457275,
        0.5
      ]
    },
    {
      "plugin": "Fundamental",
      "model": "ADSR",
      "pos": [
        480.0,
        1140.0
      ],
      "params": [
        0.0,
        0.5,
        0.5,
        0.63849985599517822
      ]
    },
    {
      "plugin": "Fundamental",
      "model": "Scope",
      "pos": [
        1200.0,
        380.0
      ],
      "params": [
        0.0,
        0.0,
        -0.0,
        0.059999853372573853,
        -14.0,
        0.0,
        0.0,
        0.0
      ],
      "data": {
        "lissajous": 0,
        "external": 0
      }
    },
    {
      "plugin": "Core",
      "model": "Blank",
      "pos": [
        1110.0,
        0.0
      ],
      "params": [],
      "width": 360.0
    },
    {
      "plugin": "Core",
      "model": "Blank",
      "pos": [
        1545.0,
        760.0
      ],
      "params": [],
      "width": 180.0
    },
    {
      "plugin": "Core",
      "model": "Blank",
      "pos": [
        1500.0,
        760.0
      ],
      "params": [],
      "width": 45.0
    },
    {
      "plugin": "Core",
      "model": "Blank",
      "pos": [
        930.0,
        1140.0
      ],
      "params": [],
      "width": 795.0
    },
    {
      "plugin": "Fundamental",
      "model": "SEQ3",
      "pos": [
        1395.0,
        380.0
      ],
      "params": [
        -0.348000168800354,
        0.0,
        0.0,
        7.0,
        2.3849954605102539,
        8.8299999237060547,
        0.0,
        0.0,
        10.0,
        7.2099990844726562,
        0.0,
        0.0,
        1.4850004911422729,
        8.2149991989135742,
        0.0,
        0.0,
        1.1250001192092896,
        7.6450009346008301,
        0.0,
        0.0,
        1.7849994897842407,
        6.2249941825866699,
        0.0,
        0.0,
        3.6300008296966553,
        5.8049993515014648,
        0.0,
        0.0,
        6.570000171661377,
        8.4400014877319336,
        0.0,
        0.0,
        0.0,
        9.8349990844726562,
        0.0,
        0.0
      ],
      "data": {
        "running": true,
        "gates": [
          1,
          1,
          1,
          1,
          1,
          1,
          1,
          1
        ],
        "gateMode": 0
      }
    },
    {
      "plugin": "AudibleInstruments",
      "model": "Braids",
      "pos": [
        690.0,
        1140.0
      ],
      "params": [
        0.88500261306762695,
        0.59700006246566772,
        -1.6460000276565552,
        0.0,
        0.25499999523162842,
        0.58499991893768311,
        0.14549985527992249
      ],
      "data": {
        "settings": [
          41,
          0,
          0,
          0,
          0,
          0,
          0,
          0,
          0,
          0,
          0,
          0,
          0,
          0,
          0,
          0,
          0,
          0,
          0,
          0
        ],
        "lowCpu": false
      }
    }
  ],
  "wires": [
    {
      "outputModuleId": 2,
      "outputId": 0,
      "inputModuleId": 3,
      "inputId": 1
    },
    {
      "outputModuleId": 5,
      "outputId": 0,
      "inputModuleId": 0,
      "inputId": 0
    },
    {
      "outputModuleId": 5,
      "outputId": 0,
      "inputModuleId": 0,
      "inputId": 1
    },
    {
      "outputModuleId": 4,
      "outputId": 0,
      "inputModuleId": 5,
      "inputId": 0
    },
    {
      "outputModuleId": 1,
      "outputId": 0,
      "inputModuleId": 4,
      "inputId": 1
    },
    {
      "outputModuleId": 3,
      "outputId": 0,
      "inputModuleId": 1,
      "inputId": 0
    },
    {
      "outputModuleId": 7,
      "outputId": 0,
      "inputModuleId": 18,
      "inputId": 5
    },
    {
      "outputModuleId": 2,
      "outputId": 0,
      "inputModuleId": 6,
      "inputId": 1
    },
    {
      "outputModuleId": 6,
      "outputId": 0,
      "inputModuleId": 7,
      "inputId": 0
    },
    {
      "outputModuleId": 2,
      "outputId": 0,
      "inputModuleId": 9,
      "inputId": 2
    },
    {
      "outputModuleId": 9,
      "outputId": 0,
      "inputModuleId": 11,
      "inputId": 0
    },
    {
      "outputModuleId": 11,
      "outputId": 0,
      "inputModuleId": 10,
      "inputId": 3
    },
    {
      "outputModuleId": 12,
      "outputId": 0,
      "inputModuleId": 10,
      "inputId": 5
    },
    {
      "outputModuleId": 9,
      "outputId": 1,
      "inputModuleId": 12,
      "inputId": 0
    },
    {
      "outputModuleId": 10,
      "outputId": 0,
      "inputModuleId": 5,
      "inputId": 1
    },
    {
      "outputModuleId": 9,
      "outputId": 2,
      "inputModuleId": 13,
      "inputId": 0
    },
    {
      "outputModuleId": 13,
      "outputId": 0,
      "inputModuleId": 10,
      "inputId": 1
    },
    {
      "outputModuleId": 2,
      "outputId": 0,
      "inputModuleId": 15,
      "inputId": 1
    },
    {
      "outputModuleId": 15,
      "outputId": 0,
      "inputModuleId": 14,
      "inputId": 0
    },
    {
      "outputModuleId": 15,
      "outputId": 1,
      "inputModuleId": 14,
      "inputId": 1
    },
    {
      "outputModuleId": 16,
      "outputId": 0,
      "inputModuleId": 5,
      "inputId": 2
    },
    {
      "outputModuleId": 14,
      "outputId": 0,
      "inputModuleId": 8,
      "inputId": 5
    },
    {
      "outputModuleId": 17,
      "outputId": 0,
      "inputModuleId": 8,
      "inputId": 3
    },
    {
      "outputModuleId": 8,
      "outputId": 1,
      "inputModuleId": 16,
      "inputId": 1
    },
    {
      "outputModuleId": 15,
      "outputId": 0,
      "inputModuleId": 17,
      "inputId": 4
    },
    {
      "outputModuleId": 19,
      "outputId": 0,
      "inputModuleId": 18,
      "inputId": 3
    },
    {
      "outputModuleId": 18,
      "outputId": 1,
      "inputModuleId": 4,
      "inputId": 3
    },
    {
      "outputModuleId": 6,
      "outputId": 0,
      "inputModuleId": 19,
      "inputId": 4
    },
    {
      "outputModuleId": 21,
      "outputId": 0,
      "inputModuleId": 23,
      "inputId": 4
    },
    {
      "outputModuleId": 20,
      "outputId": 2,
      "inputModuleId": 22,
      "inputId": 5
    },
    {
      "outputModuleId": 22,
      "outputId": 1,
      "inputModuleId": 16,
      "inputId": 3
    },
    {
      "outputModuleId": 23,
      "outputId": 0,
      "inputModuleId": 22,
      "inputId": 3
    },
    {
      "outputModuleId": 21,
      "outputId": 1,
      "inputModuleId": 20,
      "inputId": 0
    },
    {
      "outputModuleId": 2,
      "outputId": 0,
      "inputModuleId": 21,
      "inputId": 1
    },
    {
      "outputModuleId": 5,
      "outputId": 0,
      "inputModuleId": 24,
      "inputId": 0
    },
    {
      "outputModuleId": 16,
      "outputId": 0,
      "inputModuleId": 24,
      "inputId": 1
    },
    {
      "outputModuleId": 2,
      "outputId": 1,
      "inputModuleId": 1,
      "inputId": 1
    },
    {
      "outputModuleId": 29,
      "outputId": 1,
      "inputModuleId": 7,
      "inputId": 2
    },
    {
      "outputModuleId": 6,
      "outputId": 0,
      "inputModuleId": 29,
      "inputId": 1
    },
    {
      "outputModuleId": 29,
      "outputId": 2,
      "inputModuleId": 1,
      "inputId": 3
    },
    {
      "outputModuleId": 29,
      "outputId": 1,
      "inputModuleId": 1,
      "inputId": 4
    },
    {
      "outputModuleId": 30,
      "outputId": 0,
      "inputModuleId": 4,
      "inputId": 5
    },
    {
      "outputModuleId": 21,
      "outputId": 0,
      "inputModuleId": 30,
      "inputId": 0
    }
  ]
}